# xmcd
#
# Track frame offsets: 
#        150
#        27413
#        49197
#        83349
#        105630
#
# Disc length: 1803 seconds
#
# Revision: 0
# Processed by: cddbd v1.5.2PL0 Copyright (c) Steve Scherf et al.
# Submitted via: ExactAudioCopy v1.0b1
#
DISCID=31070905
DTITLE=Jimi Hendrix  - The Cry of Aloha - 8-1-1970 - Honolulu Internat
DTITLE=ional Center Arena 
DYEAR=1900
DGENRE=
TTITLE0=Straight Ahead
TTITLE1=Ezy Rider
TTITLE2=Hey Baby
TTITLE3=Spanish Castle Magic
TTITLE4=Red House
EXTD=
EXTT0=
EXTT1=
EXTT2=
EXTT3=
EXTT4=
PLAYORDER=
